<?xml version="1.0" encoding="UTF-8" standalone="no"?>
<!DOCTYPE svg PUBLIC "-//W3C//DTD SVG 1.1//EN"
 "http://www.w3.org/Graphics/SVG/1.1/DTD/svg11.dtd">
<!-- Generated by graphviz version 2.30.1 (20130214.1330)
 -->
<!-- Title: g Pages: 1 -->
<svg width="6125pt" height="3546pt"
 viewBox="0.00 0.00 1470.00 851.00" xmlns="http://www.w3.org/2000/svg" xmlns:xlink="http://www.w3.org/1999/xlink">
<g id="graph0" class="graph" transform="scale(4.16667 4.16667) rotate(0) translate(4 847)">
<title>g</title>
<polygon fill="white" stroke="white" points="-4,5 -4,-847 1467,-847 1467,5 -4,5"/>
<!-- 35_cent_S_2\n1101 -->
<g id="node1" class="node"><title>35_cent_S_2\n1101</title>
<ellipse fill="none" stroke="black" cx="1393" cy="-774" rx="64.2027" ry="64.2027"/>
<ellipse fill="none" stroke="black" cx="1393" cy="-774" rx="68.1938" ry="68.1938"/>
<text text-anchor="middle" x="1393" y="-777.8" font-family="Times New Roman,serif" font-size="14.00">35_cent_S_2</text>
<text text-anchor="middle" x="1393" y="-762.8" font-family="Times New Roman,serif" font-size="14.00">1101</text>
</g>
<!-- 35_cent_S\n1001 -->
<g id="node2" class="node"><title>35_cent_S\n1001</title>
<ellipse fill="none" stroke="black" cx="1393" cy="-629" rx="54.3981" ry="54.3981"/>
<ellipse fill="none" stroke="black" cx="1393" cy="-629" rx="58.3945" ry="58.3945"/>
<text text-anchor="middle" x="1393" y="-632.8" font-family="Times New Roman,serif" font-size="14.00">35_cent_S</text>
<text text-anchor="middle" x="1393" y="-617.8" font-family="Times New Roman,serif" font-size="14.00">1001</text>
</g>
<!-- 40_cent_S\n1010 -->
<g id="node3" class="node"><title>40_cent_S\n1010</title>
<ellipse fill="none" stroke="black" cx="1393" cy="-58" rx="54.3981" ry="54.3981"/>
<ellipse fill="none" stroke="black" cx="1393" cy="-58" rx="58.3945" ry="58.3945"/>
<text text-anchor="middle" x="1393" y="-61.8" font-family="Times New Roman,serif" font-size="14.00">40_cent_S</text>
<text text-anchor="middle" x="1393" y="-46.8" font-family="Times New Roman,serif" font-size="14.00">1010</text>
</g>
<!-- 40_cent_S_2\n1101 -->
<g id="node4" class="node"><title>40_cent_S_2\n1101</title>
<ellipse fill="none" stroke="black" cx="1393" cy="-346" rx="64.2027" ry="64.2027"/>
<ellipse fill="none" stroke="black" cx="1393" cy="-346" rx="68.1938" ry="68.1938"/>
<text text-anchor="middle" x="1393" y="-349.8" font-family="Times New Roman,serif" font-size="14.00">40_cent_S_2</text>
<text text-anchor="middle" x="1393" y="-334.8" font-family="Times New Roman,serif" font-size="14.00">1101</text>
</g>
<!-- 45_cent_S\n1011 -->
<g id="node5" class="node"><title>45_cent_S\n1011</title>
<ellipse fill="none" stroke="black" cx="1201" cy="-267" rx="54.3981" ry="54.3981"/>
<ellipse fill="none" stroke="black" cx="1201" cy="-267" rx="58.3945" ry="58.3945"/>
<text text-anchor="middle" x="1201" y="-270.8" font-family="Times New Roman,serif" font-size="14.00">45_cent_S</text>
<text text-anchor="middle" x="1201" y="-255.8" font-family="Times New Roman,serif" font-size="14.00">1011</text>
</g>
<!-- 45_cent_S_2\n1110 -->
<g id="node6" class="node"><title>45_cent_S_2\n1110</title>
<ellipse fill="none" stroke="black" cx="1009" cy="-452" rx="64.2027" ry="64.2027"/>
<ellipse fill="none" stroke="black" cx="1009" cy="-452" rx="68.1938" ry="68.1938"/>
<text text-anchor="middle" x="1009" y="-455.8" font-family="Times New Roman,serif" font-size="14.00">45_cent_S_2</text>
<text text-anchor="middle" x="1009" y="-440.8" font-family="Times New Roman,serif" font-size="14.00">1110</text>
</g>
<!-- 50_cent_S\n1111 -->
<g id="node7" class="node"><title>50_cent_S\n1111</title>
<ellipse fill="none" stroke="black" cx="1393" cy="-494" rx="54.3981" ry="54.3981"/>
<ellipse fill="none" stroke="black" cx="1393" cy="-494" rx="58.3945" ry="58.3945"/>
<text text-anchor="middle" x="1393" y="-497.8" font-family="Times New Roman,serif" font-size="14.00">50_cent_S</text>
<text text-anchor="middle" x="1393" y="-482.8" font-family="Times New Roman,serif" font-size="14.00">1111</text>
</g>
<!-- 0_cent_S\n0000 -->
<g id="node8" class="node"><title>0_cent_S\n0000</title>
<ellipse fill="none" stroke="black" cx="50" cy="-534" rx="49.4949" ry="49.4949"/>
<text text-anchor="middle" x="50" y="-537.8" font-family="Times New Roman,serif" font-size="14.00">0_cent_S</text>
<text text-anchor="middle" x="50" y="-522.8" font-family="Times New Roman,serif" font-size="14.00">0000</text>
</g>
<!-- 0_cent_S\n0000&#45;&gt;0_cent_S\n0000 -->
<g id="edge1" class="edge"><title>0_cent_S\n0000&#45;&gt;0_cent_S\n0000</title>
<path fill="none" stroke="black" d="M33.3567,-580.654C34.5206,-592.297 40.0684,-601 50,-601 56.828,-601 61.5839,-596.887 64.2678,-590.532"/>
<polygon fill="black" stroke="black" points="67.7081,-591.195 66.6433,-580.654 60.9021,-589.558 67.7081,-591.195"/>
<text text-anchor="middle" x="50" y="-604.8" font-family="Times New Roman,serif" font-size="14.00">000/100</text>
</g>
<!-- 5_cent_S\n0000 -->
<g id="node9" class="node"><title>5_cent_S\n0000</title>
<ellipse fill="none" stroke="black" cx="232" cy="-380" rx="49.4949" ry="49.4949"/>
<text text-anchor="middle" x="232" y="-383.8" font-family="Times New Roman,serif" font-size="14.00">5_cent_S</text>
<text text-anchor="middle" x="232" y="-368.8" font-family="Times New Roman,serif" font-size="14.00">0000</text>
</g>
<!-- 0_cent_S\n0000&#45;&gt;5_cent_S\n0000 -->
<g id="edge2" class="edge"><title>0_cent_S\n0000&#45;&gt;5_cent_S\n0000</title>
<path fill="none" stroke="black" d="M88.2961,-502.091C116.654,-477.829 155.792,-444.345 185.908,-418.579"/>
<polygon fill="black" stroke="black" points="188.428,-421.029 193.752,-411.868 183.878,-415.71 188.428,-421.029"/>
<text text-anchor="middle" x="141" y="-479.8" font-family="Times New Roman,serif" font-size="14.00">001/101</text>
</g>
<!-- 10_cent_S\n0000 -->
<g id="node10" class="node"><title>10_cent_S\n0000</title>
<ellipse fill="none" stroke="black" cx="419" cy="-534" rx="54.3945" ry="54.3945"/>
<text text-anchor="middle" x="419" y="-537.8" font-family="Times New Roman,serif" font-size="14.00">10_cent_S</text>
<text text-anchor="middle" x="419" y="-522.8" font-family="Times New Roman,serif" font-size="14.00">0000</text>
</g>
<!-- 0_cent_S\n0000&#45;&gt;10_cent_S\n0000 -->
<g id="edge3" class="edge"><title>0_cent_S\n0000&#45;&gt;10_cent_S\n0000</title>
<path fill="none" stroke="black" d="M99.7348,-534C165.151,-534 281.494,-534 353.933,-534"/>
<polygon fill="black" stroke="black" points="354.291,-537.5 364.291,-534 354.291,-530.5 354.291,-537.5"/>
<text text-anchor="middle" x="232" y="-537.8" font-family="Times New Roman,serif" font-size="14.00">010/110</text>
</g>
<!-- 25_cent_S\n0000 -->
<g id="node11" class="node"><title>25_cent_S\n0000</title>
<ellipse fill="none" stroke="black" cx="1009" cy="-593" rx="54.3945" ry="54.3945"/>
<text text-anchor="middle" x="1009" y="-596.8" font-family="Times New Roman,serif" font-size="14.00">25_cent_S</text>
<text text-anchor="middle" x="1009" y="-581.8" font-family="Times New Roman,serif" font-size="14.00">0000</text>
</g>
<!-- 0_cent_S\n0000&#45;&gt;25_cent_S\n0000 -->
<g id="edge4" class="edge"><title>0_cent_S\n0000&#45;&gt;25_cent_S\n0000</title>
<path fill="none" stroke="black" d="M96.147,-552.523C156.115,-576.033 265.912,-615.296 364,-630 575.521,-661.709 829.87,-625.512 945.417,-605.082"/>
<polygon fill="black" stroke="black" points="946.268,-608.486 955.495,-603.278 945.034,-601.595 946.268,-608.486"/>
<text text-anchor="middle" x="515" y="-646.8" font-family="Times New Roman,serif" font-size="14.00">011/111</text>
</g>
<!-- 5_cent_S\n0000&#45;&gt;5_cent_S\n0000 -->
<g id="edge5" class="edge"><title>5_cent_S\n0000&#45;&gt;5_cent_S\n0000</title>
<path fill="none" stroke="black" d="M215.357,-426.654C216.521,-438.297 222.068,-447 232,-447 238.828,-447 243.584,-442.887 246.268,-436.532"/>
<polygon fill="black" stroke="black" points="249.708,-437.195 248.643,-426.654 242.902,-435.558 249.708,-437.195"/>
<text text-anchor="middle" x="232" y="-450.8" font-family="Times New Roman,serif" font-size="14.00">000/100</text>
</g>
<!-- 5_cent_S\n0000&#45;&gt;10_cent_S\n0000 -->
<g id="edge6" class="edge"><title>5_cent_S\n0000&#45;&gt;10_cent_S\n0000</title>
<path fill="none" stroke="black" d="M270.438,-411.164C298.738,-434.723 337.851,-467.281 368.698,-492.959"/>
<polygon fill="black" stroke="black" points="366.831,-495.959 376.756,-499.667 371.309,-490.579 366.831,-495.959"/>
<text text-anchor="middle" x="323" y="-474.8" font-family="Times New Roman,serif" font-size="14.00">001/101</text>
</g>
<!-- 15_cent_S\n0000 -->
<g id="node12" class="node"><title>15_cent_S\n0000</title>
<ellipse fill="none" stroke="black" cx="611" cy="-380" rx="54.3945" ry="54.3945"/>
<text text-anchor="middle" x="611" y="-383.8" font-family="Times New Roman,serif" font-size="14.00">15_cent_S</text>
<text text-anchor="middle" x="611" y="-368.8" font-family="Times New Roman,serif" font-size="14.00">0000</text>
</g>
<!-- 5_cent_S\n0000&#45;&gt;15_cent_S\n0000 -->
<g id="edge7" class="edge"><title>5_cent_S\n0000&#45;&gt;15_cent_S\n0000</title>
<path fill="none" stroke="black" d="M281.514,-380C349.037,-380 471.46,-380 546.276,-380"/>
<polygon fill="black" stroke="black" points="546.506,-383.5 556.506,-380 546.506,-376.5 546.506,-383.5"/>
<text text-anchor="middle" x="419" y="-383.8" font-family="Times New Roman,serif" font-size="14.00">010/110</text>
</g>
<!-- 30_cent_S\n1000 -->
<g id="node13" class="node"><title>30_cent_S\n1000</title>
<ellipse fill="none" stroke="black" cx="1393" cy="-200" rx="54.3945" ry="54.3945"/>
<text text-anchor="middle" x="1393" y="-203.8" font-family="Times New Roman,serif" font-size="14.00">30_cent_S</text>
<text text-anchor="middle" x="1393" y="-188.8" font-family="Times New Roman,serif" font-size="14.00">1000</text>
</g>
<!-- 5_cent_S\n0000&#45;&gt;30_cent_S\n1000 -->
<g id="edge8" class="edge"><title>5_cent_S\n0000&#45;&gt;30_cent_S\n1000</title>
<path fill="none" stroke="black" d="M242.4,-331.784C260.89,-252.915 309.967,-105 418,-105 418,-105 418,-105 1108,-105 1190.49,-105 1279.83,-141.494 1335.83,-169.244"/>
<polygon fill="black" stroke="black" points="1334.36,-172.422 1344.87,-173.789 1337.51,-166.169 1334.36,-172.422"/>
<text text-anchor="middle" x="803" y="-108.8" font-family="Times New Roman,serif" font-size="14.00">011</text>
</g>
<!-- 30_cent_S_2\n0000 -->
<g id="node14" class="node"><title>30_cent_S_2\n0000</title>
<ellipse fill="none" stroke="black" cx="1201" cy="-458" rx="64.1938" ry="64.1938"/>
<text text-anchor="middle" x="1201" y="-461.8" font-family="Times New Roman,serif" font-size="14.00">30_cent_S_2</text>
<text text-anchor="middle" x="1201" y="-446.8" font-family="Times New Roman,serif" font-size="14.00">0000</text>
</g>
<!-- 5_cent_S\n0000&#45;&gt;30_cent_S_2\n0000 -->
<g id="edge9" class="edge"><title>5_cent_S\n0000&#45;&gt;30_cent_S_2\n0000</title>
<path fill="none" stroke="black" d="M263.737,-341.854C297.331,-304.769 354.853,-254 418,-254 418,-254 418,-254 900,-254 980.459,-254 1012.45,-240.346 1078,-287 1088.62,-294.56 1128.29,-378.484 1136,-389 1139.89,-394.313 1144.15,-399.663 1148.55,-404.908"/>
<polygon fill="black" stroke="black" points="1145.91,-407.205 1155.09,-412.499 1151.22,-402.638 1145.91,-407.205"/>
<text text-anchor="middle" x="707" y="-257.8" font-family="Times New Roman,serif" font-size="14.00">111</text>
</g>
<!-- 10_cent_S\n0000&#45;&gt;10_cent_S\n0000 -->
<g id="edge10" class="edge"><title>10_cent_S\n0000&#45;&gt;10_cent_S\n0000</title>
<path fill="none" stroke="black" d="M401.397,-585.452C402.913,-597.298 408.781,-606 419,-606 426.025,-606 430.994,-601.887 433.907,-595.467"/>
<polygon fill="black" stroke="black" points="437.383,-596.018 436.603,-585.452 430.624,-594.198 437.383,-596.018"/>
<text text-anchor="middle" x="419" y="-609.8" font-family="Times New Roman,serif" font-size="14.00">000/100</text>
</g>
<!-- 10_cent_S\n0000&#45;&gt;15_cent_S\n0000 -->
<g id="edge11" class="edge"><title>10_cent_S\n0000&#45;&gt;15_cent_S\n0000</title>
<path fill="none" stroke="black" d="M461.696,-500.204C490.676,-476.715 529.441,-445.295 560.07,-420.47"/>
<polygon fill="black" stroke="black" points="562.508,-422.999 568.073,-413.983 558.101,-417.561 562.508,-422.999"/>
<text text-anchor="middle" x="515" y="-479.8" font-family="Times New Roman,serif" font-size="14.00">001/101</text>
</g>
<!-- 20_cent_S\n0000 -->
<g id="node15" class="node"><title>20_cent_S\n0000</title>
<ellipse fill="none" stroke="black" cx="803" cy="-380" rx="54.3945" ry="54.3945"/>
<text text-anchor="middle" x="803" y="-383.8" font-family="Times New Roman,serif" font-size="14.00">20_cent_S</text>
<text text-anchor="middle" x="803" y="-368.8" font-family="Times New Roman,serif" font-size="14.00">0000</text>
</g>
<!-- 10_cent_S\n0000&#45;&gt;20_cent_S\n0000 -->
<g id="edge12" class="edge"><title>10_cent_S\n0000&#45;&gt;20_cent_S\n0000</title>
<path fill="none" stroke="black" d="M473.244,-527.451C524.393,-519.79 602.984,-504.376 666,-476 697.134,-461.98 728.497,-440.454 753.247,-421.337"/>
<polygon fill="black" stroke="black" points="755.668,-423.885 761.377,-414.96 751.348,-418.377 755.668,-423.885"/>
<text text-anchor="middle" x="611" y="-515.8" font-family="Times New Roman,serif" font-size="14.00">010/110</text>
</g>
<!-- 10_cent_S\n0000&#45;&gt;35_cent_S\n1001 -->
<g id="edge13" class="edge"><title>10_cent_S\n0000&#45;&gt;35_cent_S\n1001</title>
<path fill="none" stroke="black" d="M463.201,-566.231C544.061,-623.261 725.699,-736 898,-736 898,-736 898,-736 1202,-736 1254.62,-736 1306.11,-704.46 1342.18,-675.628"/>
<polygon fill="black" stroke="black" points="1344.58,-678.191 1350.1,-669.147 1340.14,-672.775 1344.58,-678.191"/>
<text text-anchor="middle" x="899" y="-739.8" font-family="Times New Roman,serif" font-size="14.00">011</text>
</g>
<!-- 10_cent_S\n0000&#45;&gt;35_cent_S_2\n1101 -->
<g id="edge14" class="edge"><title>10_cent_S\n0000&#45;&gt;35_cent_S_2\n1101</title>
<path fill="none" stroke="black" d="M447.022,-580.559C491.424,-650.352 586.895,-774 706,-774 706,-774 706,-774 1202,-774 1238.77,-774 1279.54,-774 1313.86,-774"/>
<polygon fill="black" stroke="black" points="1314.29,-777.5 1324.29,-774 1314.29,-770.5 1314.29,-777.5"/>
<text text-anchor="middle" x="899" y="-777.8" font-family="Times New Roman,serif" font-size="14.00">111</text>
</g>
<!-- 25_cent_S\n0000&#45;&gt;25_cent_S\n0000 -->
<g id="edge26" class="edge"><title>25_cent_S\n0000&#45;&gt;25_cent_S\n0000</title>
<path fill="none" stroke="black" d="M991.03,-644.452C992.578,-656.298 998.568,-665 1009,-665 1016.17,-665 1021.24,-660.887 1024.22,-654.467"/>
<polygon fill="black" stroke="black" points="1027.69,-655.022 1026.97,-644.452 1020.94,-653.167 1027.69,-655.022"/>
<text text-anchor="middle" x="1009" y="-668.8" font-family="Times New Roman,serif" font-size="14.00">000/100</text>
</g>
<!-- 25_cent_S\n0000&#45;&gt;30_cent_S\n1000 -->
<g id="edge27" class="edge"><title>25_cent_S\n0000&#45;&gt;30_cent_S\n1000</title>
<path fill="none" stroke="black" d="M1052.11,-559.199C1061.55,-550.14 1070.86,-539.829 1078,-529 1119.4,-466.193 1080.74,-421.03 1136,-370 1180.05,-329.328 1215.08,-365.653 1266,-334 1298.88,-313.558 1297.51,-297.241 1324,-269 1331.31,-261.204 1339.18,-253.027 1346.89,-245.138"/>
<polygon fill="black" stroke="black" points="1349.39,-247.584 1353.89,-237.994 1344.39,-242.683 1349.39,-247.584"/>
<text text-anchor="middle" x="1201" y="-373.8" font-family="Times New Roman,serif" font-size="14.00">001</text>
</g>
<!-- 25_cent_S\n0000&#45;&gt;35_cent_S\n1001 -->
<g id="edge28" class="edge"><title>25_cent_S\n0000&#45;&gt;35_cent_S\n1001</title>
<path fill="none" stroke="black" d="M1063.2,-600.544C1074.05,-602.049 1085.39,-603.597 1096,-605 1113.76,-607.349 1118.17,-608.225 1136,-610 1199.82,-616.353 1272.78,-621.567 1324.44,-624.916"/>
<polygon fill="black" stroke="black" points="1324.28,-628.412 1334.48,-625.56 1324.73,-621.427 1324.28,-628.412"/>
<text text-anchor="middle" x="1201" y="-624.8" font-family="Times New Roman,serif" font-size="14.00">010</text>
</g>
<!-- 25_cent_S\n0000&#45;&gt;45_cent_S\n1011 -->
<g id="edge29" class="edge"><title>25_cent_S\n0000&#45;&gt;45_cent_S\n1011</title>
<path fill="none" stroke="black" d="M1053.41,-561.025C1063.05,-551.782 1072.13,-540.929 1078,-529 1113.88,-456.063 1056.54,-418.065 1096,-347 1106.45,-328.173 1123.37,-312.342 1140.55,-299.862"/>
<polygon fill="black" stroke="black" points="1142.76,-302.586 1148.97,-294.005 1138.76,-296.838 1142.76,-302.586"/>
<text text-anchor="middle" x="1107" y="-350.8" font-family="Times New Roman,serif" font-size="14.00">011</text>
</g>
<!-- 25_cent_S\n0000&#45;&gt;30_cent_S_2\n0000 -->
<g id="edge30" class="edge"><title>25_cent_S\n0000&#45;&gt;30_cent_S_2\n0000</title>
<path fill="none" stroke="black" d="M1054.07,-561.689C1079.5,-543.618 1111.85,-520.634 1139.62,-500.9"/>
<polygon fill="black" stroke="black" points="1141.96,-503.535 1148.08,-494.889 1137.9,-497.828 1141.96,-503.535"/>
<text text-anchor="middle" x="1107" y="-533.8" font-family="Times New Roman,serif" font-size="14.00">101</text>
</g>
<!-- 25_cent_S\n0000&#45;&gt;35_cent_S_2\n1101 -->
<g id="edge31" class="edge"><title>25_cent_S\n0000&#45;&gt;35_cent_S_2\n1101</title>
<path fill="none" stroke="black" d="M1058.38,-615.924C1124.94,-647.46 1245.18,-704.432 1321.68,-740.679"/>
<polygon fill="black" stroke="black" points="1320.25,-743.874 1330.78,-744.993 1323.24,-737.548 1320.25,-743.874"/>
<text text-anchor="middle" x="1201" y="-717.8" font-family="Times New Roman,serif" font-size="14.00">110</text>
</g>
<!-- 25_cent_S\n0000&#45;&gt;50_cent_S\n1111 -->
<g id="edge32" class="edge"><title>25_cent_S\n0000&#45;&gt;50_cent_S\n1111</title>
<path fill="none" stroke="black" d="M1063.74,-592.994C1116.44,-591.588 1198.48,-585.624 1266,-564 1289.98,-556.32 1314.58,-543.862 1335.6,-531.569"/>
<polygon fill="black" stroke="black" points="1337.59,-534.458 1344.38,-526.325 1334,-528.449 1337.59,-534.458"/>
<text text-anchor="middle" x="1201" y="-592.8" font-family="Times New Roman,serif" font-size="14.00">111</text>
</g>
<!-- 15_cent_S\n0000&#45;&gt;15_cent_S\n0000 -->
<g id="edge15" class="edge"><title>15_cent_S\n0000&#45;&gt;15_cent_S\n0000</title>
<path fill="none" stroke="black" d="M593.397,-431.452C594.913,-443.298 600.781,-452 611,-452 618.025,-452 622.994,-447.887 625.907,-441.467"/>
<polygon fill="black" stroke="black" points="629.383,-442.018 628.603,-431.452 622.624,-440.198 629.383,-442.018"/>
<text text-anchor="middle" x="611" y="-455.8" font-family="Times New Roman,serif" font-size="14.00">000/100</text>
</g>
<!-- 15_cent_S\n0000&#45;&gt;20_cent_S\n0000 -->
<g id="edge16" class="edge"><title>15_cent_S\n0000&#45;&gt;20_cent_S\n0000</title>
<path fill="none" stroke="black" d="M665.685,-380C688.244,-380 714.664,-380 738.207,-380"/>
<polygon fill="black" stroke="black" points="738.448,-383.5 748.448,-380 738.448,-376.5 738.448,-383.5"/>
<text text-anchor="middle" x="707" y="-383.8" font-family="Times New Roman,serif" font-size="14.00">001/101</text>
</g>
<!-- 15_cent_S\n0000&#45;&gt;25_cent_S\n0000 -->
<g id="edge17" class="edge"><title>15_cent_S\n0000&#45;&gt;25_cent_S\n0000</title>
<path fill="none" stroke="black" d="M654.393,-413.112C680.545,-432.719 715.246,-457.3 748,-476 814.099,-513.737 894.597,-548.352 948.349,-569.981"/>
<polygon fill="black" stroke="black" points="947.148,-573.27 957.733,-573.734 949.748,-566.771 947.148,-573.27"/>
<text text-anchor="middle" x="803" y="-534.8" font-family="Times New Roman,serif" font-size="14.00">010/110</text>
</g>
<!-- 15_cent_S\n0000&#45;&gt;40_cent_S\n1010 -->
<g id="edge18" class="edge"><title>15_cent_S\n0000&#45;&gt;40_cent_S\n1010</title>
<path fill="none" stroke="black" d="M625.936,-327.493C636.877,-295.757 655.185,-256.777 684,-232 871.773,-70.5384 1186.08,-54.2424 1323.82,-55.5317"/>
<polygon fill="black" stroke="black" points="1324.18,-59.0365 1334.22,-55.666 1324.27,-52.037 1324.18,-59.0365"/>
<text text-anchor="middle" x="1009" y="-105.8" font-family="Times New Roman,serif" font-size="14.00">011</text>
</g>
<!-- 15_cent_S\n0000&#45;&gt;40_cent_S_2\n1101 -->
<g id="edge19" class="edge"><title>15_cent_S\n0000&#45;&gt;40_cent_S_2\n1101</title>
<path fill="none" stroke="black" d="M659.831,-355.637C744.889,-313.855 929.213,-230.21 1096,-201 1138.2,-193.61 1233.27,-185.014 1266,-200 1271.39,-202.467 1309.34,-246.85 1342.2,-286.038"/>
<polygon fill="black" stroke="black" points="1339.59,-288.372 1348.7,-293.792 1344.96,-283.878 1339.59,-288.372"/>
<text text-anchor="middle" x="1009" y="-243.8" font-family="Times New Roman,serif" font-size="14.00">111</text>
</g>
<!-- 30_cent_S_2\n0000&#45;&gt;30_cent_S\n1000 -->
<g id="edge33" class="edge"><title>30_cent_S_2\n0000&#45;&gt;30_cent_S\n1000</title>
<path fill="none" stroke="black" d="M1251.48,-417.698C1277.83,-396.139 1305.04,-373.659 1306,-372 1329.35,-331.82 1302.72,-310.315 1324,-269 1329.01,-259.269 1335.87,-250.027 1343.31,-241.653"/>
<polygon fill="black" stroke="black" points="1345.99,-243.91 1350.27,-234.218 1340.88,-239.125 1345.99,-243.91"/>
<text text-anchor="middle" x="1295" y="-393.8" font-family="Times New Roman,serif" font-size="14.00">000</text>
</g>
<!-- 30_cent_S_2\n0000&#45;&gt;35_cent_S\n1001 -->
<g id="edge34" class="edge"><title>30_cent_S_2\n0000&#45;&gt;35_cent_S\n1001</title>
<path fill="none" stroke="black" d="M1249.45,-500.709C1277.5,-525.954 1313.01,-557.905 1341.56,-583.605"/>
<polygon fill="black" stroke="black" points="1339.27,-586.248 1349.04,-590.336 1343.95,-581.045 1339.27,-586.248"/>
<text text-anchor="middle" x="1295" y="-552.8" font-family="Times New Roman,serif" font-size="14.00">001</text>
</g>
<!-- 30_cent_S_2\n0000&#45;&gt;40_cent_S\n1010 -->
<g id="edge35" class="edge"><title>30_cent_S_2\n0000&#45;&gt;40_cent_S\n1010</title>
<path fill="none" stroke="black" d="M1245.63,-411.7C1253.29,-401.792 1260.55,-390.983 1266,-380 1315.36,-280.543 1273.47,-235.868 1324,-137 1329.4,-126.425 1336.51,-116.081 1344.08,-106.544"/>
<polygon fill="black" stroke="black" points="1346.86,-108.675 1350.53,-98.7346 1341.46,-104.218 1346.86,-108.675"/>
<text text-anchor="middle" x="1295" y="-334.8" font-family="Times New Roman,serif" font-size="14.00">010</text>
</g>
<!-- 30_cent_S_2\n0000&#45;&gt;50_cent_S\n1111 -->
<g id="edge36" class="edge"><title>30_cent_S_2\n0000&#45;&gt;50_cent_S\n1111</title>
<path fill="none" stroke="black" d="M1265.19,-464.493C1278.71,-466.274 1292.87,-468.437 1306,-471 1312.73,-472.313 1319.7,-473.862 1326.64,-475.525"/>
<polygon fill="black" stroke="black" points="1326.2,-479.02 1336.75,-478.029 1327.88,-472.226 1326.2,-479.02"/>
<text text-anchor="middle" x="1295" y="-474.8" font-family="Times New Roman,serif" font-size="14.00">011</text>
</g>
<!-- 30_cent_S_2\n0000&#45;&gt;30_cent_S_2\n0000 -->
<g id="edge37" class="edge"><title>30_cent_S_2\n0000&#45;&gt;30_cent_S_2\n0000</title>
<path fill="none" stroke="black" d="M1184.28,-520.216C1186.34,-531.825 1191.91,-540 1201,-540 1207.25,-540 1211.83,-536.136 1214.76,-529.948"/>
<polygon fill="black" stroke="black" points="1218.16,-530.802 1217.72,-520.216 1211.46,-528.765 1218.16,-530.802"/>
<text text-anchor="middle" x="1201" y="-543.8" font-family="Times New Roman,serif" font-size="14.00">100</text>
</g>
<!-- 30_cent_S_2\n0000&#45;&gt;35_cent_S_2\n1101 -->
<g id="edge38" class="edge"><title>30_cent_S_2\n0000&#45;&gt;35_cent_S_2\n1101</title>
<path fill="none" stroke="black" d="M1234.95,-512.762C1245.25,-530.509 1256.42,-550.412 1266,-569 1294.42,-624.162 1290.37,-643.849 1324,-696 1328.55,-703.054 1333.7,-710.131 1339.09,-716.988"/>
<polygon fill="black" stroke="black" points="1336.49,-719.34 1345.49,-724.921 1341.93,-714.942 1336.49,-719.34"/>
<text text-anchor="middle" x="1295" y="-667.8" font-family="Times New Roman,serif" font-size="14.00">101</text>
</g>
<!-- 30_cent_S_2\n0000&#45;&gt;40_cent_S_2\n1101 -->
<g id="edge39" class="edge"><title>30_cent_S_2\n0000&#45;&gt;40_cent_S_2\n1101</title>
<path fill="none" stroke="black" d="M1260.58,-433.541C1275.7,-426.537 1291.72,-418.481 1306,-410 1314.19,-405.132 1322.55,-399.65 1330.68,-393.995"/>
<polygon fill="black" stroke="black" points="1332.92,-396.699 1339.05,-388.058 1328.87,-390.989 1332.92,-396.699"/>
<text text-anchor="middle" x="1295" y="-426.8" font-family="Times New Roman,serif" font-size="14.00">110</text>
</g>
<!-- 30_cent_S_2\n0000&#45;&gt;50_cent_S\n1111 -->
<g id="edge40" class="edge"><title>30_cent_S_2\n0000&#45;&gt;50_cent_S\n1111</title>
<path fill="none" stroke="black" d="M1261.52,-480.289C1269.01,-482.509 1276.63,-484.495 1284,-486 1296.92,-488.639 1310.86,-490.432 1324.3,-491.645"/>
<polygon fill="black" stroke="black" points="1324.21,-495.149 1334.46,-492.464 1324.77,-488.171 1324.21,-495.149"/>
<text text-anchor="middle" x="1295" y="-493.8" font-family="Times New Roman,serif" font-size="14.00">111</text>
</g>
<!-- 20_cent_S\n0000&#45;&gt;20_cent_S\n0000 -->
<g id="edge20" class="edge"><title>20_cent_S\n0000&#45;&gt;20_cent_S\n0000</title>
<path fill="none" stroke="black" d="M785.397,-431.452C786.913,-443.298 792.781,-452 803,-452 810.025,-452 814.994,-447.887 817.907,-441.467"/>
<polygon fill="black" stroke="black" points="821.383,-442.018 820.603,-431.452 814.624,-440.198 821.383,-442.018"/>
<text text-anchor="middle" x="803" y="-455.8" font-family="Times New Roman,serif" font-size="14.00">000/100</text>
</g>
<!-- 20_cent_S\n0000&#45;&gt;25_cent_S\n0000 -->
<g id="edge21" class="edge"><title>20_cent_S\n0000&#45;&gt;25_cent_S\n0000</title>
<path fill="none" stroke="black" d="M845.22,-414.516C878.668,-442.587 920.529,-477.895 922,-480 935.289,-499.018 927.211,-509.643 940,-529 945.25,-536.947 951.672,-544.617 958.452,-551.718"/>
<polygon fill="black" stroke="black" points="956.367,-554.584 965.909,-559.188 961.32,-549.638 956.367,-554.584"/>
<text text-anchor="middle" x="899" y="-483.8" font-family="Times New Roman,serif" font-size="14.00">001/101</text>
</g>
<!-- 20_cent_S\n0000&#45;&gt;30_cent_S\n1000 -->
<g id="edge22" class="edge"><title>20_cent_S\n0000&#45;&gt;30_cent_S\n1000</title>
<path fill="none" stroke="black" d="M846.138,-346.602C906.245,-301.552 1021.99,-224.166 1136,-200 1200.61,-186.306 1276.46,-188.509 1328.74,-192.768"/>
<polygon fill="black" stroke="black" points="1328.61,-196.27 1338.87,-193.643 1329.21,-189.296 1328.61,-196.27"/>
<text text-anchor="middle" x="1107" y="-213.8" font-family="Times New Roman,serif" font-size="14.00">010</text>
</g>
<!-- 20_cent_S\n0000&#45;&gt;45_cent_S\n1011 -->
<g id="edge23" class="edge"><title>20_cent_S\n0000&#45;&gt;45_cent_S\n1011</title>
<path fill="none" stroke="black" d="M852.874,-357.374C860.553,-354.082 868.448,-350.847 876,-348 962.437,-315.41 1066.78,-292.012 1133.26,-278.987"/>
<polygon fill="black" stroke="black" points="1134.04,-282.402 1143.19,-277.064 1132.71,-275.529 1134.04,-282.402"/>
<text text-anchor="middle" x="1009" y="-329.8" font-family="Times New Roman,serif" font-size="14.00">011</text>
</g>
<!-- 20_cent_S\n0000&#45;&gt;30_cent_S_2\n0000 -->
<g id="edge24" class="edge"><title>20_cent_S\n0000&#45;&gt;30_cent_S_2\n0000</title>
<path fill="none" stroke="black" d="M855.367,-364.246C911.677,-349.688 1003.88,-333.916 1078,-360 1104.25,-369.236 1129.02,-386.767 1149.3,-404.478"/>
<polygon fill="black" stroke="black" points="1147.06,-407.177 1156.84,-411.257 1151.74,-401.97 1147.06,-407.177"/>
<text text-anchor="middle" x="1009" y="-363.8" font-family="Times New Roman,serif" font-size="14.00">110</text>
</g>
<!-- 20_cent_S\n0000&#45;&gt;45_cent_S_2\n1110 -->
<g id="edge25" class="edge"><title>20_cent_S\n0000&#45;&gt;45_cent_S_2\n1110</title>
<path fill="none" stroke="black" d="M854.689,-397.89C878.861,-406.422 908.232,-416.788 934.772,-426.155"/>
<polygon fill="black" stroke="black" points="933.812,-429.528 944.407,-429.555 936.142,-422.927 933.812,-429.528"/>
<text text-anchor="middle" x="899" y="-424.8" font-family="Times New Roman,serif" font-size="14.00">111</text>
</g>
</g>
</svg>
