<?xml version="1.0" encoding="UTF-8" standalone="no"?>
<!DOCTYPE svg PUBLIC "-//W3C//DTD SVG 1.1//EN"
 "http://www.w3.org/Graphics/SVG/1.1/DTD/svg11.dtd">
<!-- Generated by graphviz version 2.30.1 (20130214.1330)
 -->
<!-- Title: g Pages: 1 -->
<svg width="1454pt" height="600pt"
 viewBox="0.00 0.00 1454.00 600.00" xmlns="http://www.w3.org/2000/svg" xmlns:xlink="http://www.w3.org/1999/xlink">
<g id="graph0" class="graph" transform="scale(1 1) rotate(0) translate(4 596)">
<title>g</title>
<polygon fill="white" stroke="white" points="-4,5 -4,-596 1451,-596 1451,5 -4,5"/>
<!-- 0_cent_S\n0000 -->
<g id="node1" class="node"><title>0_cent_S\n0000</title>
<ellipse fill="none" stroke="black" cx="50" cy="-488" rx="49.4949" ry="26.7407"/>
<text text-anchor="middle" x="50" y="-491.8" font-family="Times New Roman,serif" font-size="14.00">0_cent_S</text>
<text text-anchor="middle" x="50" y="-476.8" font-family="Times New Roman,serif" font-size="14.00">0000</text>
</g>
<!-- 0_cent_S\n0000&#45;&gt;0_cent_S\n0000 -->
<g id="edge1" class="edge"><title>0_cent_S\n0000&#45;&gt;0_cent_S\n0000</title>
<path fill="none" stroke="black" d="M33.228,-513.321C32.2804,-523.476 37.8711,-532 50,-532 57.7701,-532 62.8569,-528.502 65.2604,-523.317"/>
<polygon fill="black" stroke="black" points="68.7374,-523.732 66.772,-513.321 61.8161,-522.685 68.7374,-523.732"/>
<text text-anchor="middle" x="50" y="-535.8" font-family="Times New Roman,serif" font-size="14.00">000/100</text>
</g>
<!-- 5_cent_S\n0000 -->
<g id="node2" class="node"><title>5_cent_S\n0000</title>
<ellipse fill="none" stroke="black" cx="232" cy="-382" rx="49.4949" ry="26.7407"/>
<text text-anchor="middle" x="232" y="-385.8" font-family="Times New Roman,serif" font-size="14.00">5_cent_S</text>
<text text-anchor="middle" x="232" y="-370.8" font-family="Times New Roman,serif" font-size="14.00">0000</text>
</g>
<!-- 0_cent_S\n0000&#45;&gt;5_cent_S\n0000 -->
<g id="edge2" class="edge"><title>0_cent_S\n0000&#45;&gt;5_cent_S\n0000</title>
<path fill="none" stroke="black" d="M84.0148,-468.558C113.702,-451.076 157.441,-425.318 189.487,-406.446"/>
<polygon fill="black" stroke="black" points="191.354,-409.409 198.195,-401.319 187.802,-403.377 191.354,-409.409"/>
<text text-anchor="middle" x="141" y="-451.8" font-family="Times New Roman,serif" font-size="14.00">001/101</text>
</g>
<!-- 10_cent_S\n0000 -->
<g id="node3" class="node"><title>10_cent_S\n0000</title>
<ellipse fill="none" stroke="black" cx="419" cy="-382" rx="54.3945" ry="26.7407"/>
<text text-anchor="middle" x="419" y="-385.8" font-family="Times New Roman,serif" font-size="14.00">10_cent_S</text>
<text text-anchor="middle" x="419" y="-370.8" font-family="Times New Roman,serif" font-size="14.00">0000</text>
</g>
<!-- 0_cent_S\n0000&#45;&gt;10_cent_S\n0000 -->
<g id="edge3" class="edge"><title>0_cent_S\n0000&#45;&gt;10_cent_S\n0000</title>
<path fill="none" stroke="black" d="M99.3312,-484.303C146.769,-479.692 220.717,-469.857 282,-450 314.685,-439.409 349.289,-422.011 375.412,-407.464"/>
<polygon fill="black" stroke="black" points="377.296,-410.419 384.282,-402.453 373.853,-404.325 377.296,-410.419"/>
<text text-anchor="middle" x="232" y="-476.8" font-family="Times New Roman,serif" font-size="14.00">010/110</text>
</g>
<!-- 25_cent_S\n0000 -->
<g id="node4" class="node"><title>25_cent_S\n0000</title>
<ellipse fill="none" stroke="black" cx="1005" cy="-382" rx="54.3945" ry="26.7407"/>
<text text-anchor="middle" x="1005" y="-385.8" font-family="Times New Roman,serif" font-size="14.00">25_cent_S</text>
<text text-anchor="middle" x="1005" y="-370.8" font-family="Times New Roman,serif" font-size="14.00">0000</text>
</g>
<!-- 0_cent_S\n0000&#45;&gt;25_cent_S\n0000 -->
<g id="edge4" class="edge"><title>0_cent_S\n0000&#45;&gt;25_cent_S\n0000</title>
<path fill="none" stroke="black" d="M98.8654,-492.499C225.361,-502.955 578.021,-522.784 858,-450 894.263,-440.573 932.564,-422.384 960.835,-407.189"/>
<polygon fill="black" stroke="black" points="962.549,-410.241 969.646,-402.375 959.193,-404.098 962.549,-410.241"/>
<text text-anchor="middle" x="515" y="-504.8" font-family="Times New Roman,serif" font-size="14.00">011/111</text>
</g>
<!-- 5_cent_S\n0000&#45;&gt;5_cent_S\n0000 -->
<g id="edge5" class="edge"><title>5_cent_S\n0000&#45;&gt;5_cent_S\n0000</title>
<path fill="none" stroke="black" d="M215.228,-407.321C214.28,-417.476 219.871,-426 232,-426 239.77,-426 244.857,-422.502 247.26,-417.317"/>
<polygon fill="black" stroke="black" points="250.737,-417.732 248.772,-407.321 243.816,-416.685 250.737,-417.732"/>
<text text-anchor="middle" x="232" y="-429.8" font-family="Times New Roman,serif" font-size="14.00">000/100</text>
</g>
<!-- 5_cent_S\n0000&#45;&gt;10_cent_S\n0000 -->
<g id="edge6" class="edge"><title>5_cent_S\n0000&#45;&gt;10_cent_S\n0000</title>
<path fill="none" stroke="black" d="M281.607,-382C303.901,-382 330.624,-382 354.484,-382"/>
<polygon fill="black" stroke="black" points="354.514,-385.5 364.514,-382 354.514,-378.5 354.514,-385.5"/>
<text text-anchor="middle" x="323" y="-385.8" font-family="Times New Roman,serif" font-size="14.00">001/101</text>
</g>
<!-- 15_cent_S\n0000 -->
<g id="node5" class="node"><title>15_cent_S\n0000</title>
<ellipse fill="none" stroke="black" cx="611" cy="-163" rx="54.3945" ry="26.7407"/>
<text text-anchor="middle" x="611" y="-166.8" font-family="Times New Roman,serif" font-size="14.00">15_cent_S</text>
<text text-anchor="middle" x="611" y="-151.8" font-family="Times New Roman,serif" font-size="14.00">0000</text>
</g>
<!-- 5_cent_S\n0000&#45;&gt;15_cent_S\n0000 -->
<g id="edge7" class="edge"><title>5_cent_S\n0000&#45;&gt;15_cent_S\n0000</title>
<path fill="none" stroke="black" d="M266.126,-362.757C334.326,-323.139 490.398,-232.477 566.572,-188.227"/>
<polygon fill="black" stroke="black" points="568.566,-191.117 575.455,-183.067 565.05,-185.064 568.566,-191.117"/>
<text text-anchor="middle" x="419" y="-308.8" font-family="Times New Roman,serif" font-size="14.00">010/110</text>
</g>
<!-- 30_cent_S\n1000 -->
<g id="node6" class="node"><title>30_cent_S\n1000</title>
<ellipse fill="none" stroke="black" cx="1381" cy="-565" rx="54.3945" ry="26.7407"/>
<text text-anchor="middle" x="1381" y="-568.8" font-family="Times New Roman,serif" font-size="14.00">30_cent_S</text>
<text text-anchor="middle" x="1381" y="-553.8" font-family="Times New Roman,serif" font-size="14.00">1000</text>
</g>
<!-- 5_cent_S\n0000&#45;&gt;30_cent_S\n1000 -->
<g id="edge8" class="edge"><title>5_cent_S\n0000&#45;&gt;30_cent_S\n1000</title>
<path fill="none" stroke="black" d="M264.899,-402.025C290.706,-417.358 328.472,-437.874 364,-450 690.26,-561.351 783.651,-567.609 1128,-584 1203.48,-587.593 1223.08,-596.876 1298,-587 1306.81,-585.838 1316.02,-584.003 1324.96,-581.876"/>
<polygon fill="black" stroke="black" points="1326.05,-585.211 1334.89,-579.371 1324.33,-578.424 1326.05,-585.211"/>
<text text-anchor="middle" x="803" y="-571.8" font-family="Times New Roman,serif" font-size="14.00">011</text>
</g>
<!-- 30_cent_S_2\n0000 -->
<g id="node7" class="node"><title>30_cent_S_2\n0000</title>
<ellipse fill="none" stroke="black" cx="1193" cy="-187" rx="64.1938" ry="26.7407"/>
<text text-anchor="middle" x="1193" y="-190.8" font-family="Times New Roman,serif" font-size="14.00">30_cent_S_2</text>
<text text-anchor="middle" x="1193" y="-175.8" font-family="Times New Roman,serif" font-size="14.00">0000</text>
</g>
<!-- 5_cent_S\n0000&#45;&gt;30_cent_S_2\n0000 -->
<g id="edge9" class="edge"><title>5_cent_S\n0000&#45;&gt;30_cent_S_2\n0000</title>
<path fill="none" stroke="black" d="M251.798,-357.394C296.747,-301.095 417.099,-164.841 556,-127 661.675,-98.211 982.866,-149.56 1124.12,-174.526"/>
<polygon fill="black" stroke="black" points="1123.51,-177.974 1133.97,-176.277 1124.74,-171.082 1123.51,-177.974"/>
<text text-anchor="middle" x="707" y="-125.8" font-family="Times New Roman,serif" font-size="14.00">111</text>
</g>
<!-- 10_cent_S\n0000&#45;&gt;10_cent_S\n0000 -->
<g id="edge10" class="edge"><title>10_cent_S\n0000&#45;&gt;10_cent_S\n0000</title>
<path fill="none" stroke="black" d="M401.11,-407.321C400.099,-417.476 406.063,-426 419,-426 427.288,-426 432.714,-422.502 435.278,-417.317"/>
<polygon fill="black" stroke="black" points="438.753,-417.75 436.89,-407.321 431.842,-416.636 438.753,-417.75"/>
<text text-anchor="middle" x="419" y="-429.8" font-family="Times New Roman,serif" font-size="14.00">000/100</text>
</g>
<!-- 10_cent_S\n0000&#45;&gt;15_cent_S\n0000 -->
<g id="edge11" class="edge"><title>10_cent_S\n0000&#45;&gt;15_cent_S\n0000</title>
<path fill="none" stroke="black" d="M441.059,-357.726C475.513,-318.014 543.922,-239.164 582.277,-194.955"/>
<polygon fill="black" stroke="black" points="584.937,-197.229 588.846,-187.382 579.649,-192.642 584.937,-197.229"/>
<text text-anchor="middle" x="515" y="-302.8" font-family="Times New Roman,serif" font-size="14.00">001/101</text>
</g>
<!-- 20_cent_S\n0000 -->
<g id="node8" class="node"><title>20_cent_S\n0000</title>
<ellipse fill="none" stroke="black" cx="803" cy="-382" rx="54.3945" ry="26.7407"/>
<text text-anchor="middle" x="803" y="-385.8" font-family="Times New Roman,serif" font-size="14.00">20_cent_S</text>
<text text-anchor="middle" x="803" y="-370.8" font-family="Times New Roman,serif" font-size="14.00">0000</text>
</g>
<!-- 10_cent_S\n0000&#45;&gt;20_cent_S\n0000 -->
<g id="edge12" class="edge"><title>10_cent_S\n0000&#45;&gt;20_cent_S\n0000</title>
<path fill="none" stroke="black" d="M473.518,-382C543.039,-382 664.257,-382 738.398,-382"/>
<polygon fill="black" stroke="black" points="738.537,-385.5 748.537,-382 738.537,-378.5 738.537,-385.5"/>
<text text-anchor="middle" x="611" y="-385.8" font-family="Times New Roman,serif" font-size="14.00">010/110</text>
</g>
<!-- 35_cent_S\n1001 -->
<g id="node9" class="node"><title>35_cent_S\n1001</title>
<ellipse fill="none" stroke="black" cx="1381" cy="-191" rx="54.3945" ry="26.7407"/>
<text text-anchor="middle" x="1381" y="-194.8" font-family="Times New Roman,serif" font-size="14.00">35_cent_S</text>
<text text-anchor="middle" x="1381" y="-179.8" font-family="Times New Roman,serif" font-size="14.00">1001</text>
</g>
<!-- 10_cent_S\n0000&#45;&gt;35_cent_S\n1001 -->
<g id="edge13" class="edge"><title>10_cent_S\n0000&#45;&gt;35_cent_S\n1001</title>
<path fill="none" stroke="black" d="M446.621,-359.168C456.59,-349.299 467.148,-337.029 474,-324 491.166,-291.361 478.96,-277.496 492,-243 512.821,-187.922 506.402,-158.734 556,-127 606.734,-94.5388 1261.93,-96.1407 1276,-96 1285.78,-95.9022 1290.02,-90.3526 1298,-96 1317.62,-109.883 1301.38,-127.921 1316,-147 1321.31,-153.923 1328.02,-160.157 1335.08,-165.607"/>
<polygon fill="black" stroke="black" points="1333.32,-168.648 1343.48,-171.641 1337.4,-162.963 1333.32,-168.648"/>
<text text-anchor="middle" x="899" y="-104.8" font-family="Times New Roman,serif" font-size="14.00">011</text>
</g>
<!-- 35_cent_S_2\n1101 -->
<g id="node10" class="node"><title>35_cent_S_2\n1101</title>
<ellipse fill="none" stroke="black" cx="1381" cy="-385" rx="64.1938" ry="26.7407"/>
<text text-anchor="middle" x="1381" y="-388.8" font-family="Times New Roman,serif" font-size="14.00">35_cent_S_2</text>
<text text-anchor="middle" x="1381" y="-373.8" font-family="Times New Roman,serif" font-size="14.00">1101</text>
</g>
<!-- 10_cent_S\n0000&#45;&gt;35_cent_S_2\n1101 -->
<g id="edge14" class="edge"><title>10_cent_S\n0000&#45;&gt;35_cent_S_2\n1101</title>
<path fill="none" stroke="black" d="M465.795,-395.839C577.582,-428.691 873.864,-510.188 1128,-531 1185.59,-535.716 1205.66,-555.472 1258,-531 1306.62,-508.268 1342.67,-455.578 1362.52,-420.116"/>
<polygon fill="black" stroke="black" points="1365.74,-421.512 1367.45,-411.055 1359.59,-418.166 1365.74,-421.512"/>
<text text-anchor="middle" x="899" y="-507.8" font-family="Times New Roman,serif" font-size="14.00">111</text>
</g>
<!-- 25_cent_S\n0000&#45;&gt;25_cent_S\n0000 -->
<g id="edge26" class="edge"><title>25_cent_S\n0000&#45;&gt;25_cent_S\n0000</title>
<path fill="none" stroke="black" d="M987.483,-407.321C986.493,-417.476 992.332,-426 1005,-426 1013.12,-426 1018.43,-422.502 1020.94,-417.317"/>
<polygon fill="black" stroke="black" points="1024.41,-417.744 1022.52,-407.321 1017.5,-416.652 1024.41,-417.744"/>
<text text-anchor="middle" x="1005" y="-429.8" font-family="Times New Roman,serif" font-size="14.00">000/100</text>
</g>
<!-- 25_cent_S\n0000&#45;&gt;30_cent_S\n1000 -->
<g id="edge27" class="edge"><title>25_cent_S\n0000&#45;&gt;30_cent_S\n1000</title>
<path fill="none" stroke="black" d="M1056.2,-391.291C1119.36,-403.539 1223.73,-425.783 1258,-445 1296.98,-466.86 1332.28,-504.467 1354.76,-531.766"/>
<polygon fill="black" stroke="black" points="1352.31,-534.3 1361.32,-539.878 1357.75,-529.9 1352.31,-534.3"/>
<text text-anchor="middle" x="1193" y="-448.8" font-family="Times New Roman,serif" font-size="14.00">001</text>
</g>
<!-- 25_cent_S\n0000&#45;&gt;35_cent_S\n1001 -->
<g id="edge28" class="edge"><title>25_cent_S\n0000&#45;&gt;35_cent_S\n1001</title>
<path fill="none" stroke="black" d="M1044.45,-363.595C1110.34,-331.91 1239.56,-269.091 1258,-255 1267.5,-247.74 1266.26,-241.94 1276,-235 1290.81,-224.443 1308.55,-215.759 1325.15,-208.976"/>
<polygon fill="black" stroke="black" points="1326.73,-212.116 1334.76,-205.203 1324.17,-205.6 1326.73,-212.116"/>
<text text-anchor="middle" x="1193" y="-325.8" font-family="Times New Roman,serif" font-size="14.00">010</text>
</g>
<!-- 45_cent_S\n1011 -->
<g id="node13" class="node"><title>45_cent_S\n1011</title>
<ellipse fill="none" stroke="black" cx="1193" cy="-496" rx="54.3945" ry="26.7407"/>
<text text-anchor="middle" x="1193" y="-499.8" font-family="Times New Roman,serif" font-size="14.00">45_cent_S</text>
<text text-anchor="middle" x="1193" y="-484.8" font-family="Times New Roman,serif" font-size="14.00">1011</text>
</g>
<!-- 25_cent_S\n0000&#45;&gt;45_cent_S\n1011 -->
<g id="edge29" class="edge"><title>25_cent_S\n0000&#45;&gt;45_cent_S\n1011</title>
<path fill="none" stroke="black" d="M1033.55,-404.847C1049.05,-417.177 1069.05,-432.234 1088,-444 1105.38,-454.788 1125.3,-465.184 1143.02,-473.807"/>
<polygon fill="black" stroke="black" points="1141.53,-476.975 1152.06,-478.147 1144.56,-470.664 1141.53,-476.975"/>
<text text-anchor="middle" x="1099" y="-459.8" font-family="Times New Roman,serif" font-size="14.00">011</text>
</g>
<!-- 25_cent_S\n0000&#45;&gt;30_cent_S_2\n0000 -->
<g id="edge30" class="edge"><title>25_cent_S\n0000&#45;&gt;30_cent_S_2\n0000</title>
<path fill="none" stroke="black" d="M1036.64,-360.386C1048.61,-350.532 1061.48,-337.947 1070,-324 1086.08,-297.689 1070.07,-282.087 1088,-257 1096.09,-245.684 1122.02,-228.22 1145.96,-213.567"/>
<polygon fill="black" stroke="black" points="1147.91,-216.48 1154.66,-208.312 1144.29,-210.489 1147.91,-216.48"/>
<text text-anchor="middle" x="1099" y="-260.8" font-family="Times New Roman,serif" font-size="14.00">101</text>
</g>
<!-- 25_cent_S\n0000&#45;&gt;35_cent_S_2\n1101 -->
<g id="edge31" class="edge"><title>25_cent_S\n0000&#45;&gt;35_cent_S_2\n1101</title>
<path fill="none" stroke="black" d="M1059.59,-382.43C1124.4,-382.95 1233.84,-383.828 1306.5,-384.41"/>
<polygon fill="black" stroke="black" points="1306.48,-387.91 1316.5,-384.491 1306.53,-380.91 1306.48,-387.91"/>
<text text-anchor="middle" x="1193" y="-387.8" font-family="Times New Roman,serif" font-size="14.00">110</text>
</g>
<!-- 50_cent_S\n1111 -->
<g id="node15" class="node"><title>50_cent_S\n1111</title>
<ellipse fill="none" stroke="black" cx="1381" cy="-292" rx="54.3945" ry="26.7407"/>
<text text-anchor="middle" x="1381" y="-295.8" font-family="Times New Roman,serif" font-size="14.00">50_cent_S</text>
<text text-anchor="middle" x="1381" y="-280.8" font-family="Times New Roman,serif" font-size="14.00">1111</text>
</g>
<!-- 25_cent_S\n0000&#45;&gt;50_cent_S\n1111 -->
<g id="edge32" class="edge"><title>25_cent_S\n0000&#45;&gt;50_cent_S\n1111</title>
<path fill="none" stroke="black" d="M1057.29,-374.452C1134.91,-362.896 1275.58,-341.382 1298,-334 1311.07,-329.694 1324.63,-323.537 1336.86,-317.259"/>
<polygon fill="black" stroke="black" points="1338.72,-320.234 1345.92,-312.464 1335.44,-314.046 1338.72,-320.234"/>
<text text-anchor="middle" x="1193" y="-367.8" font-family="Times New Roman,serif" font-size="14.00">111</text>
</g>
<!-- 15_cent_S\n0000&#45;&gt;15_cent_S\n0000 -->
<g id="edge15" class="edge"><title>15_cent_S\n0000&#45;&gt;15_cent_S\n0000</title>
<path fill="none" stroke="black" d="M593.11,-188.321C592.099,-198.476 598.063,-207 611,-207 619.288,-207 624.714,-203.502 627.278,-198.317"/>
<polygon fill="black" stroke="black" points="630.753,-198.75 628.89,-188.321 623.842,-197.636 630.753,-198.75"/>
<text text-anchor="middle" x="611" y="-210.8" font-family="Times New Roman,serif" font-size="14.00">000/100</text>
</g>
<!-- 15_cent_S\n0000&#45;&gt;20_cent_S\n0000 -->
<g id="edge16" class="edge"><title>15_cent_S\n0000&#45;&gt;20_cent_S\n0000</title>
<path fill="none" stroke="black" d="M617.094,-189.56C625.29,-225.681 644.643,-290.326 684,-330 689.299,-335.342 721.58,-349.416 751.039,-361.576"/>
<polygon fill="black" stroke="black" points="749.887,-364.887 760.467,-365.444 752.544,-358.41 749.887,-364.887"/>
<text text-anchor="middle" x="707" y="-356.8" font-family="Times New Roman,serif" font-size="14.00">001/101</text>
</g>
<!-- 15_cent_S\n0000&#45;&gt;25_cent_S\n0000 -->
<g id="edge17" class="edge"><title>15_cent_S\n0000&#45;&gt;25_cent_S\n0000</title>
<path fill="none" stroke="black" d="M647.479,-182.821C719.105,-222.837 880.836,-313.192 959.44,-357.105"/>
<polygon fill="black" stroke="black" points="958.165,-360.402 968.602,-362.224 961.579,-354.291 958.165,-360.402"/>
<text text-anchor="middle" x="803" y="-301.8" font-family="Times New Roman,serif" font-size="14.00">010/110</text>
</g>
<!-- 40_cent_S\n1010 -->
<g id="node11" class="node"><title>40_cent_S\n1010</title>
<ellipse fill="none" stroke="black" cx="1381" cy="-112" rx="54.3945" ry="26.7407"/>
<text text-anchor="middle" x="1381" y="-115.8" font-family="Times New Roman,serif" font-size="14.00">40_cent_S</text>
<text text-anchor="middle" x="1381" y="-100.8" font-family="Times New Roman,serif" font-size="14.00">1010</text>
</g>
<!-- 15_cent_S\n0000&#45;&gt;40_cent_S\n1010 -->
<g id="edge18" class="edge"><title>15_cent_S\n0000&#45;&gt;40_cent_S\n1010</title>
<path fill="none" stroke="black" d="M663.499,-155.392C774.898,-139.363 1046.72,-102.566 1276,-90 1285.76,-89.4649 1288.31,-88.7222 1298,-90 1306.81,-91.1616 1316.02,-92.9968 1324.96,-95.1237"/>
<polygon fill="black" stroke="black" points="1324.33,-98.5765 1334.89,-97.6286 1326.05,-91.789 1324.33,-98.5765"/>
<text text-anchor="middle" x="1005" y="-123.8" font-family="Times New Roman,serif" font-size="14.00">011</text>
</g>
<!-- 40_cent_S_2\n1101 -->
<g id="node12" class="node"><title>40_cent_S_2\n1101</title>
<ellipse fill="none" stroke="black" cx="1381" cy="-26" rx="64.1938" ry="26.7407"/>
<text text-anchor="middle" x="1381" y="-29.8" font-family="Times New Roman,serif" font-size="14.00">40_cent_S_2</text>
<text text-anchor="middle" x="1381" y="-14.8" font-family="Times New Roman,serif" font-size="14.00">1101</text>
</g>
<!-- 15_cent_S\n0000&#45;&gt;40_cent_S_2\n1101 -->
<g id="edge19" class="edge"><title>15_cent_S\n0000&#45;&gt;40_cent_S_2\n1101</title>
<path fill="none" stroke="black" d="M658.045,-149.535C684.283,-142.098 717.844,-132.982 748,-126 948.855,-79.4983 1190.65,-47.8634 1308.46,-33.9796"/>
<polygon fill="black" stroke="black" points="1308.91,-37.4502 1318.44,-32.8109 1308.1,-30.4977 1308.91,-37.4502"/>
<text text-anchor="middle" x="1005" y="-91.8" font-family="Times New Roman,serif" font-size="14.00">111</text>
</g>
<!-- 30_cent_S_2\n0000&#45;&gt;30_cent_S\n1000 -->
<g id="edge33" class="edge"><title>30_cent_S_2\n0000&#45;&gt;30_cent_S\n1000</title>
<path fill="none" stroke="black" d="M1220.1,-211.141C1233.25,-224.636 1248.4,-242.444 1258,-261 1273.35,-290.68 1265.1,-302.413 1276,-334 1300.79,-405.804 1339.47,-485.866 1362.01,-530.36"/>
<polygon fill="black" stroke="black" points="1358.91,-531.978 1366.57,-539.299 1365.14,-528.8 1358.91,-531.978"/>
<text text-anchor="middle" x="1287" y="-389.8" font-family="Times New Roman,serif" font-size="14.00">000</text>
</g>
<!-- 30_cent_S_2\n0000&#45;&gt;35_cent_S\n1001 -->
<g id="edge34" class="edge"><title>30_cent_S_2\n0000&#45;&gt;35_cent_S\n1001</title>
<path fill="none" stroke="black" d="M1257.49,-188.365C1276.49,-188.774 1297.33,-189.222 1316.34,-189.631"/>
<polygon fill="black" stroke="black" points="1316.32,-193.131 1326.39,-189.847 1316.47,-186.133 1316.32,-193.131"/>
<text text-anchor="middle" x="1287" y="-193.8" font-family="Times New Roman,serif" font-size="14.00">001</text>
</g>
<!-- 30_cent_S_2\n0000&#45;&gt;40_cent_S\n1010 -->
<g id="edge35" class="edge"><title>30_cent_S_2\n0000&#45;&gt;40_cent_S\n1010</title>
<path fill="none" stroke="black" d="M1239.5,-168.653C1266.53,-157.752 1300.89,-143.9 1328.86,-132.622"/>
<polygon fill="black" stroke="black" points="1330.5,-135.734 1338.46,-128.749 1327.88,-129.242 1330.5,-135.734"/>
<text text-anchor="middle" x="1287" y="-155.8" font-family="Times New Roman,serif" font-size="14.00">010</text>
</g>
<!-- 30_cent_S_2\n0000&#45;&gt;50_cent_S\n1111 -->
<g id="edge36" class="edge"><title>30_cent_S_2\n0000&#45;&gt;50_cent_S\n1111</title>
<path fill="none" stroke="black" d="M1231.64,-208.248C1261.69,-225.21 1303.86,-249.016 1335.56,-266.913"/>
<polygon fill="black" stroke="black" points="1334.19,-270.16 1344.62,-272.028 1337.63,-264.064 1334.19,-270.16"/>
<text text-anchor="middle" x="1287" y="-246.8" font-family="Times New Roman,serif" font-size="14.00">011</text>
</g>
<!-- 30_cent_S_2\n0000&#45;&gt;30_cent_S_2\n0000 -->
<g id="edge37" class="edge"><title>30_cent_S_2\n0000&#45;&gt;30_cent_S_2\n0000</title>
<path fill="none" stroke="black" d="M1175.44,-212.761C1174.66,-222.721 1180.52,-231 1193,-231 1200.8,-231 1206.01,-227.766 1208.64,-222.909"/>
<polygon fill="black" stroke="black" points="1212.14,-223.238 1210.56,-212.761 1205.26,-221.936 1212.14,-223.238"/>
<text text-anchor="middle" x="1193" y="-234.8" font-family="Times New Roman,serif" font-size="14.00">100</text>
</g>
<!-- 30_cent_S_2\n0000&#45;&gt;35_cent_S_2\n1101 -->
<g id="edge38" class="edge"><title>30_cent_S_2\n0000&#45;&gt;35_cent_S_2\n1101</title>
<path fill="none" stroke="black" d="M1217.44,-211.722C1230.12,-225.666 1245.67,-243.714 1258,-261 1267.25,-273.971 1265.94,-279.648 1276,-292 1295.18,-315.541 1320.51,-338.327 1341.37,-355.453"/>
<polygon fill="black" stroke="black" points="1339.45,-358.394 1349.42,-361.962 1343.85,-352.952 1339.45,-358.394"/>
<text text-anchor="middle" x="1287" y="-318.8" font-family="Times New Roman,serif" font-size="14.00">101</text>
</g>
<!-- 30_cent_S_2\n0000&#45;&gt;40_cent_S_2\n1101 -->
<g id="edge39" class="edge"><title>30_cent_S_2\n0000&#45;&gt;40_cent_S_2\n1101</title>
<path fill="none" stroke="black" d="M1219.67,-162.605C1244.02,-139.72 1281.85,-104.802 1316,-76 1324.09,-69.1795 1332.93,-62.0625 1341.39,-55.4084"/>
<polygon fill="black" stroke="black" points="1343.62,-58.1076 1349.35,-49.1954 1339.31,-52.5897 1343.62,-58.1076"/>
<text text-anchor="middle" x="1287" y="-112.8" font-family="Times New Roman,serif" font-size="14.00">110</text>
</g>
<!-- 30_cent_S_2\n0000&#45;&gt;50_cent_S\n1111 -->
<g id="edge40" class="edge"><title>30_cent_S_2\n0000&#45;&gt;50_cent_S\n1111</title>
<path fill="none" stroke="black" d="M1215.4,-211.818C1230.76,-228.206 1252.78,-248.983 1276,-262 1289.58,-269.612 1305.27,-275.439 1320.27,-279.839"/>
<polygon fill="black" stroke="black" points="1319.43,-283.239 1330,-282.53 1321.29,-276.492 1319.43,-283.239"/>
<text text-anchor="middle" x="1287" y="-276.8" font-family="Times New Roman,serif" font-size="14.00">111</text>
</g>
<!-- 20_cent_S\n0000&#45;&gt;20_cent_S\n0000 -->
<g id="edge20" class="edge"><title>20_cent_S\n0000&#45;&gt;20_cent_S\n0000</title>
<path fill="none" stroke="black" d="M785.11,-407.321C784.099,-417.476 790.063,-426 803,-426 811.288,-426 816.714,-422.502 819.278,-417.317"/>
<polygon fill="black" stroke="black" points="822.753,-417.75 820.89,-407.321 815.842,-416.636 822.753,-417.75"/>
<text text-anchor="middle" x="803" y="-429.8" font-family="Times New Roman,serif" font-size="14.00">000/100</text>
</g>
<!-- 20_cent_S\n0000&#45;&gt;25_cent_S\n0000 -->
<g id="edge21" class="edge"><title>20_cent_S\n0000&#45;&gt;25_cent_S\n0000</title>
<path fill="none" stroke="black" d="M857.596,-382C882.929,-382 913.367,-382 939.912,-382"/>
<polygon fill="black" stroke="black" points="940.256,-385.5 950.256,-382 940.256,-378.5 940.256,-385.5"/>
<text text-anchor="middle" x="899" y="-385.8" font-family="Times New Roman,serif" font-size="14.00">001/101</text>
</g>
<!-- 20_cent_S\n0000&#45;&gt;30_cent_S\n1000 -->
<g id="edge22" class="edge"><title>20_cent_S\n0000&#45;&gt;30_cent_S\n1000</title>
<path fill="none" stroke="black" d="M825.838,-406.068C851.014,-432.501 894.77,-474.565 940,-500 1017.06,-543.334 1040.81,-550.353 1128,-565 1191.78,-575.714 1265.92,-574.055 1317.19,-570.74"/>
<polygon fill="black" stroke="black" points="1317.72,-574.212 1327.46,-570.035 1317.24,-567.229 1317.72,-574.212"/>
<text text-anchor="middle" x="1099" y="-565.8" font-family="Times New Roman,serif" font-size="14.00">010</text>
</g>
<!-- 20_cent_S\n0000&#45;&gt;45_cent_S\n1011 -->
<g id="edge23" class="edge"><title>20_cent_S\n0000&#45;&gt;45_cent_S\n1011</title>
<path fill="none" stroke="black" d="M838.054,-402.432C864.883,-417.677 903.691,-437.883 940,-450 1002.69,-470.919 1077.5,-483.052 1129.25,-489.55"/>
<polygon fill="black" stroke="black" points="1128.93,-493.037 1139.28,-490.775 1129.78,-486.088 1128.93,-493.037"/>
<text text-anchor="middle" x="1005" y="-484.8" font-family="Times New Roman,serif" font-size="14.00">011</text>
</g>
<!-- 20_cent_S\n0000&#45;&gt;30_cent_S_2\n0000 -->
<g id="edge24" class="edge"><title>20_cent_S\n0000&#45;&gt;30_cent_S_2\n0000</title>
<path fill="none" stroke="black" d="M833.227,-359.957C841.529,-353.232 850.378,-345.599 858,-338 898.705,-297.421 890.756,-267.641 940,-238 969.949,-219.973 1057.58,-204.915 1121.1,-195.94"/>
<polygon fill="black" stroke="black" points="1121.65,-199.397 1131.07,-194.552 1120.68,-192.464 1121.65,-199.397"/>
<text text-anchor="middle" x="1005" y="-241.8" font-family="Times New Roman,serif" font-size="14.00">110</text>
</g>
<!-- 45_cent_S_2\n1110 -->
<g id="node14" class="node"><title>45_cent_S_2\n1110</title>
<ellipse fill="none" stroke="black" cx="1005" cy="-289" rx="64.1938" ry="26.7407"/>
<text text-anchor="middle" x="1005" y="-292.8" font-family="Times New Roman,serif" font-size="14.00">45_cent_S_2</text>
<text text-anchor="middle" x="1005" y="-277.8" font-family="Times New Roman,serif" font-size="14.00">1110</text>
</g>
<!-- 20_cent_S\n0000&#45;&gt;45_cent_S_2\n1110 -->
<g id="edge25" class="edge"><title>20_cent_S\n0000&#45;&gt;45_cent_S_2\n1110</title>
<path fill="none" stroke="black" d="M843.037,-363.848C874.21,-349.352 918.163,-328.914 952.266,-313.056"/>
<polygon fill="black" stroke="black" points="954.012,-316.104 961.604,-308.714 951.061,-309.757 954.012,-316.104"/>
<text text-anchor="middle" x="899" y="-350.8" font-family="Times New Roman,serif" font-size="14.00">111</text>
</g>
</g>
</svg>
